<svg xmlns="http://www.w3.org/2000/svg"><symbol id="64px-build-recipe" viewBox="0 0 64 64"><path d="M53.3 20.2a5 5 0 0 0-6.6.6l-1.4 1.4a1.5 1.5 0 0 1-2.4-.7L38.9 9C37.4 3.7 32.7-.3 27 0S15.8 6 15.8 12.1V64h31.9a98.5 98.5 0 0 1 4.4-29c1.1-3.5 2.2-6.6 3.1-8.8a5.2 5.2 0 0 0-1.9-6zm-2.7 5.2c-1.8 5.3-4.8 14.5-5.9 20.1S42.8 56 42.8 59.2H20.7v-48a6.4 6.4 0 0 1 5.4-6.3c5-.6 7.5 2.5 8.8 6.8l3.4 10.9a6.4 6.4 0 0 0 3.1 3.9c3.6 2 6.4.3 8.3-1.7a.6.6 0 0 1 .9.6z"/></symbol><symbol id="64px-recipe" viewBox="0 0 64 64"><path d="M52.7 0H11.3a5 5 0 0 0-5 5v54a5 5 0 0 0 5 5h41.4a5 5 0 0 0 5-5V5a5 5 0 0 0-5-5zm.1 59.1H11.2V19.7h41.6zm0-44.3H11.2V7.6a2.7 2.7 0 0 1 2.7-2.7h36.2a2.7 2.7 0 0 1 2.7 2.7z"/><path d="M17.8 28.3h28.3a1.8 1.8 0 0 0 1.8-1.8 1.8 1.8 0 0 0-1.8-1.9H17.8a1.8 1.8 0 0 0-1.8 1.9 1.8 1.8 0 0 0 1.8 1.8zm0 8.6h28.3a1.8 1.8 0 0 0 1.8-1.8 1.9 1.9 0 0 0-1.8-1.9H17.8a1.9 1.9 0 0 0-1.8 1.9 1.8 1.8 0 0 0 1.8 1.8zm0 8.7h28.3a1.9 1.9 0 0 0 1.8-1.9 1.8 1.8 0 0 0-1.8-1.8H17.8a1.8 1.8 0 0 0-1.8 1.8 1.9 1.9 0 0 0 1.8 1.9zm0 8.6h28.3a1.8 1.8 0 0 0 1.8-1.9 1.8 1.8 0 0 0-1.8-1.8H17.8a1.8 1.8 0 0 0-1.8 1.8 1.8 1.8 0 0 0 1.8 1.9z"/></symbol><symbol id="64px-daily-dish" viewBox="0 0 64 64"><path d="M61.2 46.3h-2.8a26.4 26.4 0 0 0-16.6-24.4h.1a9.9 9.9 0 0 0-19.8 0h.1A26.4 26.4 0 0 0 5.6 46.3H2.8a2.9 2.9 0 0 0 0 5.7h58.4a2.9 2.9 0 0 0 0-5.7zM32 16.2a5.7 5.7 0 0 1 5.5 4.4 25.5 25.5 0 0 0-11 0 5.7 5.7 0 0 1 5.5-4.4zM11.3 46.3a20.7 20.7 0 0 1 41.4 0z"/></symbol></svg>