<svg xmlns="http://www.w3.org/2000/svg" viewBox="0 0 16 16" width="16" height="16"><path d="M9.55 11.42c-.33 0-.29.34-.29.34v3.18a.8.8 0 0 0 .81.8H12s2.13 0 2.13-1.91V9.99a2.08 2.08 0 0 0 1.62-2.08 3.46 3.46 0 0 0-1.35-2.25.69.69 0 0 1-.22-.51c-.06-.86.07-2.39-.05-3.21S12.82 1.1 11.68 1a3 3 0 0 0-1.77.33c-.84-.84-1-1-2-1.1a1.76 1.76 0 0 0-1.6.77S.89 6.49.73 6.7a2.28 2.28 0 0 0-.35 2A2.32 2.32 0 0 0 1.82 10v3.87c0 2 2.13 1.92 2.13 1.92h1.94a.82.82 0 0 0 .82-.82v-3.2a.28.28 0 0 0-.31-.31v-1.2a.2.2 0 0 1 .15-.2 1 1 0 0 0 .75-1v-3A.2.2 0 0 0 7 5.8a.25.25 0 0 0-.23.27v2.15a.17.17 0 0 1-.19.16c-.07 0-.2 0-.22-.17V6.04a.27.27 0 0 0-.24-.25c-.07 0-.18.07-.19.25v2.18c0 .14-.18.17-.23.16s-.21-.06-.21-.17v-2.1c0-.1-.07-.36-.27-.32S5 6.1 5 6.1V9a1.22 1.22 0 0 0 .69 1 .33.33 0 0 1 .16.25v1.19c-.33 0-.32.34-.32.34V14a.58.58 0 0 1-.58.58H3.83c-.8-.06-.76-1.07-.76-1.07v-4.7c-1.39.1-1.56-.44-1.5-.85a1.14 1.14 0 0 1 .33-.62C2.7 6.53 6.21 3 7.1 2s1.6-.2 1.6-.2l1.63 1.64a.12.12 0 0 0 .2-.09V2.8c0-.74.57-.5 1.48-.52s.85.42.85.42v3a.76.76 0 0 0 .24.59l1 1a1.13 1.13 0 0 1 .34.71.76.76 0 0 1-.57.71 3 3 0 0 1-1 .11v4.63s0 1-.76 1.07h-1.12a.58.58 0 0 1-.58-.58v-2.22a.27.27 0 0 0-.23-.3 2.79 2.79 0 0 0 .64-.74 6.24 6.24 0 0 0 .6-1.33 6.4 6.4 0 0 0 .3-1.27 2 2 0 0 0-2-2.41C8.36 5.69 8 6.23 8 8a6 6 0 0 0 1.54 3.39zm.93-5.12a.07.07 0 0 1 .1-.08 1.44 1.44 0 0 1 .66 1.41A5.31 5.31 0 0 1 11 9.12a8.73 8.73 0 0 1-.54 1.25h-.06a12 12 0 0 0 .08-4.07zm-.65-.21H10a.12.12 0 0 1 .11.09 10.77 10.77 0 0 1-.16 4.32c0 .06-.11.06-.12 0a11.25 11.25 0 0 1-.11-4.31.15.15 0 0 1 .11-.1zm-.56.15a10.87 10.87 0 0 0 .11 4.15 6.76 6.76 0 0 1-.8-2.65c0-1.09.18-1.54.62-1.63a.09.09 0 0 1 .07.13z"/></svg>