<svg xmlns="http://www.w3.org/2000/svg" viewBox="0 0 256 256" width="256" height="256"><path d="M153.21 183.82c-5.37-.17-4.64 5.49-4.64 5.49v51.83a13.16 13.16 0 0 0 13.17 13.14h31.66s34.73.73 34.73-31.26c0-11.32 0-22.54.05-32.31l-.66-29.88c7.53-1 27.14-11.43 26.41-33.87-.54-16.81-14.83-30.79-22-36.72-2.47-2.06-3.41-5.18-3.62-8.39-.91-14 1.26-39-.69-52.21C225.37 14 206.61 15.5 187.94 14.2s-28.87 5.42-28.87 5.42c-13.68-13.67-16-17.15-33.22-18a28.75 28.75 0 0 0-25.32 12.45s-88.43 89.34-91 92.77-11 16.93-5.79 32.42 23.56 20.82 23.56 20.82.06 12.16.1 29.09v34c0 32 34.74 31.26 34.74 31.26h31.51A13.35 13.35 0 0 0 107 241.09v-51.71a4.55 4.55 0 0 0-5-4.94l-.19-19.64a3.36 3.36 0 0 1 2.45-3.29c11.65-3.13 12.33-12.59 12.11-16.43-.1-1.56.24-37.1-.41-49.55-.17-3.25-2.68-3.47-3.6-3.35a4.15 4.15 0 0 0-3.78 4.43c0 9.41-.21 27.73-.29 34.92a2.8 2.8 0 0 1-3.15 2.71c-1-.17-3.25-.2-3.47-2.82-.66-8-.25-26.47-.47-35.31A4.31 4.31 0 0 0 97.27 92c-1.3-.1-3 1-3.16 4.07-.55 9.17-.22 28.43-.38 35.44-.06 2.31-2.86 2.84-3.77 2.64s-3.31-.92-3.29-2.75c.11-8.68-.59-31.88-.47-34.15.15-2.75-1-5.94-4.34-5.36s-3 5.07-3 5.07-.29 33.28.29 47.18c.42 10 7.4 15 11.25 17a4.55 4.55 0 0 1 2.52 4l.08 19.37c-5.36-.17-5.2 5.52-5.2 5.52v35a9.49 9.49 0 0 1-9.49 9.49c-5.21 0-11.9-.13-18.23-.64-13.1-1.06-12.44-17.47-12.44-17.47v-75.29c-22.57 1.64-25.44-7-24.41-13.77a18.36 18.36 0 0 1 5.28-10.07c13-13.23 70.32-71.35 84.91-86.59 16.5-17.22 26-3.26 26-3.26l26.65 26.66a1.89 1.89 0 0 0 3.22-1.34v-9.47c-.29-12.15 9.26-8.22 24.17-8.52 15.12-.3 13.82 6.79 13.82 6.79l-.11 48.53a13.32 13.32 0 0 0 4 9.61l16.51 16.1a18.13 18.13 0 0 1 5.66 11.63c.35 5.1-3.85 9.5-9.38 11.45-7.19 2.54-16.21 1.81-16.21 1.81l.25 39.22v36.29s.66 16.41-12.44 17.47c-6.33.51-13 .64-18.24.64a9.5 9.5 0 0 1-9.49-9.5v-36.17c0-3.7-2.35-4.66-3.83-4.89l.12-.18a47.86 47.86 0 0 0 10.4-12.12 103.44 103.44 0 0 0 9.77-21.67c2.27-7.29 4.34-14.62 4.92-20.69 1.91-20.07-9.85-39.62-32.57-39.18s-29.27 9.25-28.64 38.48c.52 26.15 21 50.42 25.17 55.25zm15.23-83.5a1.13 1.13 0 0 1 1.62-1.3c3.82 2.08 11.1 8 10.78 22.89a89.85 89.85 0 0 1-4.26 24.42c-2.85 8.78-6.82 16.17-8.78 20.36a.5.5 0 0 1-1-.28c1.88-11.03 6.8-45.24 1.64-66.09zm-10.68-3.45h2.29a1.88 1.88 0 0 1 1.95 1.52c1.28 7.29 5.87 38.6-2.67 70.36a1 1 0 0 1-1.93-.07c-2.11-12.48-8.46-49.64-1.76-70.26a2.3 2.3 0 0 1 2.12-1.55zm-9 2.47c-1.44 7.28-5.58 33.67 1.79 67.57a.4.4 0 0 1-.74.31c-3.76-6.95-13-27.35-13-43.18 0-17.67 3-25 10.15-26.45a1.51 1.51 0 0 1 1.8 1.75z"/></svg>