<svg xmlns="http://www.w3.org/2000/svg" viewBox="0 0 64 64" width="64" height="64"><path d="M38.32 46c-1.34 0-1.16 1.38-1.16 1.38v13a3.3 3.3 0 0 0 3.3 3.3h7.94s8.71.18 8.71-7.84v-8.1L57 40.22a8.49 8.49 0 0 0 6.63-8.49c-.14-4.21-3.72-7.72-5.51-9.21a2.88 2.88 0 0 1-.91-2.1c-.22-3.51.32-9.77-.17-13.09-.58-3.91-5.28-3.54-10-3.86S39.8 4.83 39.8 4.83c-3.43-3.43-4-4.3-8.33-4.52a7.2 7.2 0 0 0-6.35 3.12S2.94 25.83 2.29 26.69a9.22 9.22 0 0 0-1.45 8.13C2.14 38.7 6.75 40 6.75 40v15.82c0 8 8.71 7.84 8.71 7.84h7.89a3.34 3.34 0 0 0 3.35-3.35v-13a1.14 1.14 0 0 0-1.26-1.24l-.05-4.92a.84.84 0 0 1 .61-.75 3.81 3.81 0 0 0 3-4.12c0-.39.06-9.3-.1-12.42a.79.79 0 0 0-.91-.84 1 1 0 0 0-.94 1.11c0 2.36-.06 7-.08 8.75a.71.71 0 0 1-.79.69c-.25 0-.81-.06-.87-.71-.16-2-.06-6.64-.11-8.86a1.09 1.09 0 0 0-1-1c-.32 0-.74.26-.79 1-.13 2.3-.05 7.13-.09 8.88 0 .59-.72.72-.95.67s-.83-.23-.82-.69c0-2.18-.15-8-.12-8.57s-.25-1.48-1.09-1.34-.76 1.27-.76 1.27-.07 8.35.07 11.83a5 5 0 0 0 2.82 4.26 1.15 1.15 0 0 1 .63 1v4.85c-1.34 0-1.3 1.38-1.3 1.38v8.77a2.38 2.38 0 0 1-2.38 2.38c-1.31 0-3 0-4.57-.16-3.29-.27-3.12-4.38-3.12-4.38V35.29c-5.66.41-6.38-1.76-6.12-3.45a4.61 4.61 0 0 1 1.32-2.53C10.32 26 24.68 11.42 28.34 7.6c4.14-4.32 6.52-.82 6.52-.82l6.68 6.69a.48.48 0 0 0 .81-.34v-2.37c-.07-3 2.32-2.06 6.06-2.14s3.46 1.7 3.46 1.7v12.17a3.36 3.36 0 0 0 1 2.41l4.14 4a4.54 4.54 0 0 1 1.42 2.92 3.11 3.11 0 0 1-2.36 2.87 11.59 11.59 0 0 1-4.06.45v18.93s.16 4.12-3.12 4.38c-1.59.13-3.27.16-4.58.16A2.37 2.37 0 0 1 42 56.27v-9.06A1.11 1.11 0 0 0 41 46a11.91 11.91 0 0 0 2.6-3 25.53 25.53 0 0 0 2.45-5.43 28.18 28.18 0 0 0 1.24-5.19c.48-5-2.47-9.94-8.17-9.83S31.84 24.77 32 32.1c.13 6.55 5.27 12.64 6.31 13.85zm3.82-20.93a.29.29 0 0 1 .41-.33c1 .52 2.78 2 2.7 5.74a22.46 22.46 0 0 1-1.07 6.13A39.65 39.65 0 0 1 42 41.7a.13.13 0 0 1-.24-.07c.44-2.77 1.67-11.34.38-16.57zm-2.68-.86h.58a.48.48 0 0 1 .48.39 43.94 43.94 0 0 1-.67 17.65.25.25 0 0 1-.49 0c-.53-3.13-2.12-12.45-.44-17.62a.57.57 0 0 1 .54-.43zm-2.25.62a43.25 43.25 0 0 0 .44 16.93c0 .12-.13.19-.18.08-.94-1.75-3.26-6.84-3.26-10.84 0-4.43.75-6.28 2.55-6.64a.39.39 0 0 1 .45.46z"/></svg>