<svg xmlns="http://www.w3.org/2000/svg" viewBox="0 0 32 32" width="32" height="32"><path d="M19.14 22.94c-.67 0-.58.69-.58.69v6.44a1.63 1.63 0 0 0 1.63 1.64h3.95s4.32.09 4.32-3.89v-4l-.08-3.72a4.22 4.22 0 0 0 3.29-4.21c-.07-2.09-1.85-3.83-2.73-4.57a1.41 1.41 0 0 1-.45-1c-.12-1.75.15-4.85-.09-6.5-.29-2-2.62-1.82-4.94-1.98a6.08 6.08 0 0 0-3.59.68C18.16.82 17.88.38 15.73.28a3.58 3.58 0 0 0-3.15 1.54s-11 11.12-11.32 11.54a4.59 4.59 0 0 0-.72 4A4.72 4.72 0 0 0 3.47 20v7.85c0 4 4.32 3.89 4.32 3.89h3.92a1.66 1.66 0 0 0 1.66-1.66v-6.44a.57.57 0 0 0-.63-.62v-2.44a.42.42 0 0 1 .3-.41 1.89 1.89 0 0 0 1.51-2c0-.2 0-4.62-.05-6.17a.4.4 0 0 0-.45-.42.52.52 0 0 0-.47.56v4.34a.36.36 0 0 1-.4.34c-.12 0-.4 0-.43-.35-.08-1 0-3.3-.06-4.4a.55.55 0 0 0-.48-.51c-.16 0-.37.13-.4.51-.06 1.14 0 3.54 0 4.41 0 .29-.36.35-.47.33s-.41-.12-.41-.34c0-1.08-.07-4-.06-4.25s-.13-.74-.54-.67-.38.63-.38.63v5.87a2.44 2.44 0 0 0 1.4 2.11.57.57 0 0 1 .31.5V23c-.66 0-.64.69-.64.69v4.35a1.18 1.18 0 0 1-1.18 1.18c-.65 0-1.48 0-2.27-.08C5.92 29 6 27 6 27v-9.37c-2.81.21-3.16-.87-3-1.71a2.31 2.31 0 0 1 .66-1.25C5.24 13 12.37 5.79 14.18 3.89c2.06-2.14 3.24-.4 3.24-.4l3.31 3.31a.23.23 0 0 0 .4-.16V5.46c0-1.51 1.16-1 3-1.06s1.72.85 1.72.85v6a1.66 1.66 0 0 0 .5 1.2l2 2a2.28 2.28 0 0 1 .71 1.45 1.54 1.54 0 0 1-1.17 1.42 5.66 5.66 0 0 1-2 .23V27s.08 2-1.55 2.17c-.79.07-1.62.08-2.27.08A1.18 1.18 0 0 1 21 28v-4.45a.55.55 0 0 0-.48-.61 6.21 6.21 0 0 0 1.29-1.51A13.14 13.14 0 0 0 23 18.71a13.88 13.88 0 0 0 .61-2.57c.24-2.5-1.23-4.93-4.05-4.88s-3.64 1.15-3.56 4.79c.07 3.25 2.62 6.27 3.13 6.87zM21 12.56a.14.14 0 0 1 .2-.17 2.89 2.89 0 0 1 1.34 2.85 11 11 0 0 1-.53 3A19.86 19.86 0 0 1 21 20.81a.06.06 0 0 1-.12 0c.18-1.4.79-5.66.12-8.25zm-1.33-.43H20a.25.25 0 0 1 .24.2 21.83 21.83 0 0 1-.34 8.75.12.12 0 0 1-.24 0c-.26-1.55-1-6.17-.22-8.74a.29.29 0 0 1 .26-.21zm-1.12.31a21.6 21.6 0 0 0 .22 8.4h-.09a13.78 13.78 0 0 1-1.61-5.37c0-2.2.37-3.12 1.26-3.29a.18.18 0 0 1 .25.26z"/></svg>